<svg width="197" height="92" viewBox="0 0 197 92" fill="none" xmlns="http://www.w3.org/2000/svg">
<path d="M169.366 4.3824C171.654 4.30906 174.708 4.11356 176.154 3.94694L147.083 4.26286C152.639 4.25593 152.301 4.86749 147.913 8.78405C145.444 10.9879 142.672 14.0023 141.755 15.4843C140.273 17.8745 139.5 18.1254 134.868 17.7124C128.406 17.1374 115.29 20.0842 109.362 23.4436L104.919 25.9608L100.641 22.7303C96.9976 19.9782 94.7694 19.1591 85.6055 17.2028C79.6888 15.9391 71.5787 14.8445 67.5824 14.7698C60.8671 14.6436 60.2665 14.4883 59.6428 12.7214C59.2716 11.6696 56.6088 9.38901 53.7242 7.65327L48.4801 4.49651L27.7013 4.70875C28.3747 4.7467 29.1996 4.84352 30.1843 4.9933C34.1967 5.60331 45.1023 8.49778 45.6188 9.09027C46.3015 9.87038 39.1906 23.1561 36.0688 26.9327C30.9775 33.093 29.683 33.0772 30.1976 26.8624C30.6551 21.3223 28.4928 10.2277 26.4395 7.58402C25.0317 5.77058 24.9353 4.89076 26.4723 4.72131L13.8105 4.85064C21.8903 5.78983 25.196 12.5544 24.9739 26.8565C24.9151 30.6668 24.5882 34.3535 24.0602 37.5833C23.7593 39.4234 23.3932 41.1152 22.9741 42.597C22.3545 44.788 21.6192 46.5201 20.8083 47.5938C19.6938 49.0706 17.4236 50.1833 14.8929 50.6938L27.1876 50.649C25.8631 50.354 25.901 49.4434 27.4286 44.8118C28.9103 40.3174 30.0037 38.7752 33.4677 36.291C38.9444 32.3649 43.8028 25.875 47.2206 17.9229C49.8424 11.824 50.0466 11.6113 52.2766 12.689C53.5549 13.3067 55.2668 15.1142 56.0804 16.7051C57.456 19.3967 57.8775 19.5971 62.1024 19.566C66.3585 19.5348 68.4687 19.4772 69.2305 20.4623C70.0019 21.46 69.3903 23.5272 68.2241 27.7744C66.585 33.7387 65.1892 36.5321 61.3392 41.5449C58.6837 45.0032 55.3838 48.4799 54.0082 49.2697C52.9818 49.8587 48.157 50.3973 42.8209 50.7163L61.4163 50.7963C60.6034 50.6568 61.214 49.6851 63.8715 46.4304C68.8988 40.2721 72.1673 33.717 73.7739 26.5693C75.3206 19.69 75.7794 19.489 85.1399 21.5926C92.156 23.1688 97.2052 25.646 100.029 28.8977C102.845 32.1416 104.708 32.6202 106.882 30.6589C107.803 29.8284 111.334 27.8845 114.728 26.3395L120.898 23.5309L122.991 29.8092C125.622 37.6992 127.307 40.5598 132.338 45.6865C132.619 45.9721 132.887 46.2402 133.138 46.4919C136.131 49.4844 136.811 50.1648 128.121 50.3312L147.658 50.2414C145.269 50.11 144.009 49.2795 140.283 46.2249C137.481 43.9276 134.003 40.4974 132.557 38.6016C129.805 34.9979 126.151 26.0555 126.602 24.0301C126.957 22.4362 132.596 21.8821 137.494 22.9608C141.426 23.8255 141.572 23.7472 145.472 18.6667C147.657 15.8197 150.925 12.3606 152.735 10.979L156.025 8.4663L156.84 14.6342C157.929 22.8802 160.371 29.3284 165.776 38.2399C168.249 42.3149 170.812 49.5323 170.546 49.6901C169.733 50.1691 165.711 50.2794 161.358 50.2809L187.258 49.9633C188.068 49.9534 188.793 49.455 189.092 48.7015L189.454 47.79L184.347 48.8451C177.602 50.7139 175.828 47.0966 173.071 41.4744C172.201 39.7005 171.233 37.7271 169.98 35.6633C164.755 27.0542 162.487 20.9183 161.703 13.2699C161.017 6.56324 161.059 6.32779 163.101 5.43541C164.259 4.92904 167.079 4.45476 169.366 4.3824Z" fill="#667F0E"/>
<path fill-rule="evenodd" clip-rule="evenodd" d="M169.366 4.3824C171.654 4.30906 174.708 4.11356 176.154 3.94694C177.6 3.78032 180.423 3.97268 182.426 4.37493C190.403 5.97467 195.401 18.8955 193.174 32.1586C193.174 32.1586 192.269 37.2893 191.482 40.5307C190.788 43.3911 189.454 47.79 189.454 47.79L184.347 48.8451C177.602 50.7139 175.828 47.0966 173.071 41.4744C172.201 39.7005 171.233 37.7271 169.98 35.6633C164.755 27.0542 162.487 20.9183 161.703 13.2699C161.017 6.56324 161.059 6.32779 163.101 5.43541C164.259 4.92904 167.079 4.45476 169.366 4.3824ZM102.78 4.49204C121.099 4.45635 140.181 4.36412 144.831 4.28733C145.668 4.27338 146.418 4.26369 147.083 4.26286C152.639 4.25593 152.301 4.86749 147.913 8.78405C145.444 10.9879 142.672 14.0023 141.755 15.4843C140.273 17.8745 139.5 18.1254 134.868 17.7124C128.406 17.1374 115.29 20.0842 109.362 23.4436L104.919 25.9608L100.641 22.7303C96.9976 19.9782 94.7694 19.1591 85.6055 17.2028C79.6888 15.9391 71.5787 14.8445 67.5824 14.7698C60.8671 14.6436 60.2665 14.4883 59.6428 12.7214C59.2716 11.6696 56.6088 9.38901 53.7242 7.65327L48.4801 4.49651L56.6601 4.56884C61.159 4.60901 70.6092 4.61291 77.6604 4.57825C84.7117 4.54359 96.0156 4.5045 102.78 4.49204ZM145.472 18.6667C147.657 15.8197 150.925 12.3606 152.735 10.979L156.025 8.4663L156.84 14.6342C157.929 22.8802 160.371 29.3284 165.776 38.2399C168.249 42.3149 170.812 49.5323 170.546 49.6901C169.733 50.1691 165.711 50.2794 161.358 50.2809C159.358 50.2817 157.289 50.2594 155.428 50.2394C152.933 50.2126 150.812 50.1898 149.739 50.2318C148.935 50.2632 148.261 50.2745 147.658 50.2414C145.269 50.11 144.009 49.2795 140.283 46.2249C137.481 43.9276 134.003 40.4974 132.557 38.6016C129.805 34.9979 126.151 26.0555 126.602 24.0301C126.957 22.4362 132.596 21.8821 137.494 22.9608C141.426 23.8255 141.572 23.7472 145.472 18.6667ZM106.882 30.6589C107.803 29.8284 111.334 27.8845 114.728 26.3395L120.898 23.5309L122.991 29.8092C125.622 37.6992 127.307 40.5598 132.338 45.6865C132.619 45.9721 132.887 46.2402 133.138 46.4919C136.131 49.4844 136.811 50.1648 128.121 50.3312C125.564 50.3801 122.195 50.3846 117.836 50.3904C116.589 50.3921 115.261 50.3938 113.848 50.3968C85.6083 50.456 63.9957 50.6237 61.9947 50.7988C61.7577 50.8196 61.5636 50.8216 61.4163 50.7963C60.6034 50.6568 61.214 49.6851 63.8715 46.4304C68.8988 40.2721 72.1673 33.717 73.7739 26.5693C75.3206 19.69 75.7794 19.489 85.1399 21.5926C92.156 23.1688 97.2052 25.646 100.029 28.8977C102.845 32.1416 104.708 32.6202 106.882 30.6589ZM27.7013 4.70875C28.3747 4.7467 29.1996 4.84352 30.1843 4.9933C34.1967 5.60331 45.1023 8.49778 45.6188 9.09027C46.3015 9.87038 39.1906 23.1561 36.0688 26.9327C30.9775 33.093 29.683 33.0772 30.1976 26.8624C30.6551 21.3223 28.4928 10.2277 26.4395 7.58402C25.0317 5.77058 24.9353 4.89076 26.4723 4.72131C26.8045 4.68467 27.2131 4.68124 27.7013 4.70875ZM33.4677 36.291C38.9444 32.3649 43.8028 25.875 47.2206 17.9229C49.8424 11.824 50.0466 11.6113 52.2766 12.689C53.5549 13.3067 55.2668 15.1142 56.0804 16.7051C57.456 19.3967 57.8775 19.5971 62.1024 19.566C66.3585 19.5348 68.4687 19.4772 69.2305 20.4623C70.0019 21.46 69.3903 23.5272 68.2241 27.7744C66.585 33.7387 65.1892 36.5321 61.3392 41.5449C58.6837 45.0032 55.3838 48.4799 54.0082 49.2697C52.9818 49.8587 48.157 50.3973 42.8209 50.7163L27.1876 50.649C25.8631 50.354 25.901 49.4434 27.4286 44.8118C28.9103 40.3174 30.0037 38.7752 33.4677 36.291ZM0.848201 15.8945C1.82866 8.23233 3.86826 5.4738 8.97315 4.90005C10.7453 4.70129 12.3553 4.68149 13.8105 4.85064C21.8903 5.78983 25.196 12.5544 24.9739 26.8565C24.9151 30.6668 24.5882 34.3535 24.0602 37.5833C23.7593 39.4234 23.3932 41.1152 22.9741 42.597C22.3545 44.788 21.6192 46.5201 20.8083 47.5938C19.6938 49.0706 17.4236 50.1833 14.8929 50.6938C12.9776 51.0802 10.913 51.1217 9.08719 50.715C5.82222 49.9876 3.58557 47.2242 2.31307 42.3448C0.839549 36.6983 0.0378519 22.2227 0.848201 15.8945Z" fill="#667F0E"/>
<path fill-rule="evenodd" clip-rule="evenodd" d="M176.154 3.94694C174.708 4.11356 171.654 4.30906 169.366 4.3824C167.079 4.45476 164.259 4.92904 163.101 5.43541C161.059 6.32779 161.017 6.56324 161.703 13.2699C162.487 20.9183 164.755 27.0542 169.98 35.6633C171.233 37.7271 172.201 39.7005 173.071 41.4744C175.828 47.0966 177.602 50.7139 184.347 48.8451L189.454 47.79C189.454 47.79 190.788 43.3911 191.482 40.5307C192.269 37.2893 193.174 32.1586 193.174 32.1586C195.401 18.8955 190.403 5.97467 182.426 4.37493C180.423 3.97268 177.6 3.78032 176.154 3.94694ZM144.831 4.28733C140.181 4.36412 121.099 4.45635 102.78 4.49204C96.0156 4.5045 84.7117 4.54359 77.6604 4.57825C70.6092 4.61291 61.159 4.60901 56.6601 4.56884L48.4801 4.49651L53.7242 7.65327C56.6088 9.38901 59.2716 11.6696 59.6428 12.7214C60.2665 14.4883 60.8671 14.6436 67.5824 14.7698C71.5787 14.8445 79.6888 15.9391 85.6055 17.2028C94.7694 19.1591 96.9976 19.9782 100.641 22.7303L104.919 25.9608L109.362 23.4436C115.29 20.0842 128.406 17.1374 134.868 17.7124C139.5 18.1254 140.273 17.8745 141.755 15.4843C142.672 14.0023 145.444 10.9879 147.913 8.78405C152.301 4.86749 152.639 4.25593 147.083 4.26286C146.418 4.26369 145.668 4.27338 144.831 4.28733ZM152.735 10.979C150.925 12.3606 147.657 15.8197 145.472 18.6667C141.572 23.7472 141.426 23.8255 137.494 22.9608C132.596 21.8821 126.957 22.4362 126.602 24.0301C126.151 26.0555 129.805 34.9979 132.557 38.6016C134.003 40.4974 137.481 43.9276 140.283 46.2249C144.009 49.2795 145.269 50.11 147.658 50.2414C148.261 50.2745 148.935 50.2632 149.739 50.2318C151.612 50.1585 156.677 50.2826 161.358 50.2809C162.889 50.2804 164.379 50.2664 165.703 50.2277C168.143 50.1562 170.019 50.0006 170.546 49.6901C170.812 49.5323 168.249 42.3149 165.776 38.2399C160.371 29.3284 157.929 22.8802 156.84 14.6342L156.025 8.4663L152.735 10.979ZM114.728 26.3395C111.334 27.8845 107.803 29.8284 106.882 30.6589C104.708 32.6202 102.845 32.1416 100.029 28.8977C97.2052 25.646 92.156 23.1688 85.1399 21.5926C75.7794 19.489 75.3206 19.69 73.7739 26.5693C72.1673 33.717 68.8988 40.2721 63.8715 46.4304C61.214 49.6851 60.6034 50.6568 61.4163 50.7963C61.5636 50.8216 61.7577 50.8196 61.9947 50.7988C63.9957 50.6237 85.6083 50.456 113.848 50.3968C120.202 50.3835 124.832 50.3941 128.121 50.3312C136.811 50.1648 136.131 49.4844 133.138 46.4919C132.887 46.2402 132.619 45.9721 132.338 45.6865C127.307 40.5598 125.622 37.6992 122.991 29.8092L120.898 23.5309L114.728 26.3395Z" fill="#66800E"/>
<path fill-rule="evenodd" clip-rule="evenodd" d="M169.366 4.3824C171.654 4.30906 174.708 4.11356 176.154 3.94694L147.083 4.26286C152.639 4.25593 152.301 4.86749 147.913 8.78405C145.444 10.9879 142.672 14.0023 141.755 15.4843C140.273 17.8745 139.5 18.1254 134.868 17.7124C128.406 17.1374 115.29 20.0842 109.362 23.4436L104.919 25.9608L100.641 22.7303C96.9976 19.9782 94.7694 19.1591 85.6055 17.2028C79.6888 15.9391 71.5787 14.8445 67.5824 14.7698C60.8671 14.6436 60.2665 14.4883 59.6428 12.7214C59.2716 11.6696 56.6088 9.38901 53.7242 7.65327L48.4801 4.49651L27.7013 4.70875C28.3747 4.7467 29.1996 4.84352 30.1843 4.9933C34.1967 5.60331 45.1023 8.49778 45.6188 9.09027C46.3015 9.87038 29 36 17 40C5 44 15.1344 43.6932 15.1344 43.6932C14.8336 45.5333 11.7652 49.5119 11.3461 50.9938L33.4677 36.291C38.9444 32.3649 43.8028 25.875 47.2206 17.9229C49.8424 11.824 50.0466 11.6113 52.2766 12.689C53.5549 13.3067 55.2668 15.1142 56.0804 16.7051C57.456 19.3967 57.8775 19.5971 62.1024 19.566C62.2725 19.5647 62.4393 19.5634 62.6026 19.5622C66.5251 19.5318 68.4992 19.5166 69.2305 20.4623C69.9714 21.4205 69.4366 23.3651 68.36 27.28C68.3156 27.4415 68.2703 27.6062 68.2241 27.7744C66.585 33.7387 65.1892 36.5321 61.3392 41.5449C58.6837 45.0032 55.3838 48.4799 54.0082 49.2697C52.9818 49.8587 48.157 50.3973 42.8209 50.7163L61.4163 50.7963C60.6034 50.6568 61.214 49.6851 63.8715 46.4304C68.8988 40.2721 72.1673 33.717 73.7739 26.5693C75.3206 19.69 75.7794 19.489 85.1399 21.5926C92.156 23.1688 97.2052 25.646 100.029 28.8977C102.845 32.1416 104.708 32.6202 106.882 30.6589C107.803 29.8284 111.334 27.8845 114.728 26.3395L120.898 23.5309L122.991 29.8092C125.622 37.6992 127.307 40.5598 132.338 45.6865C132.619 45.9721 132.887 46.2402 133.138 46.4919C136.131 49.4844 136.811 50.1648 128.121 50.3312L147.658 50.2414C145.269 50.11 144.009 49.2795 140.283 46.2249C137.481 43.9276 134.003 40.4974 132.557 38.6016C129.805 34.9979 126.151 26.0555 126.602 24.0301C126.957 22.4362 132.596 21.8821 137.494 22.9608C141.426 23.8255 141.572 23.7472 145.472 18.6667C147.657 15.8197 150.925 12.3606 152.735 10.979L156.025 8.4663L156.84 14.6342C157.929 22.8802 160.371 29.3284 165.776 38.2399C168.249 42.3149 170.812 49.5323 170.546 49.6901C170.019 50.0006 168.143 50.1562 165.703 50.2277L161.358 50.2809C162.889 50.2804 164.379 50.2664 165.703 50.2277L187.258 49.9633C188.068 49.9534 188.793 49.455 189.092 48.7015L189.454 47.79L184.347 48.8451C177.602 50.7139 175.828 47.0966 173.071 41.4744C172.201 39.7005 171.233 37.7271 169.98 35.6633C164.755 27.0542 162.487 20.9183 161.703 13.2699C161.017 6.56324 161.059 6.32779 163.101 5.43541C164.259 4.92904 167.079 4.45476 169.366 4.3824Z" fill="#516609"/>
<path fill-rule="evenodd" clip-rule="evenodd" d="M102.78 4.49211C121.099 4.45642 140.181 4.36418 144.831 4.2874C145.668 4.27345 146.417 4.26375 147.083 4.26293C152.639 4.256 152.301 4.86756 147.913 8.78412C145.443 10.9879 142.672 14.0024 141.754 15.4844C140.273 17.8746 139.5 18.1255 134.868 17.7124C128.406 17.1375 115.29 20.0842 109.362 23.4436L104.919 25.9609L100.641 22.7304C96.9975 19.9783 94.7693 19.1592 85.6054 17.2029C79.6886 15.9391 71.5786 14.8446 67.5823 14.7698C60.867 14.6437 60.2664 14.4884 59.6427 12.7215C59.2715 11.6696 56.6087 9.38907 53.7241 7.65334L48.48 4.49658L56.66 4.5689C61.1589 4.60907 70.6091 4.61297 77.6603 4.57832C84.7116 4.54366 96.0155 4.50457 102.78 4.49211Z" fill="url(#paint0_linear_850_12719)"/>
<g filter="url(#filter0_i_850_12719)">
<path fill-rule="evenodd" clip-rule="evenodd" d="M6.46607 4.96532C2.79633 5.50171 1.34858 8.24483 0.698878 15.8983C0.161865 22.2194 0.844487 36.6982 1.94617 42.3543C2.89759 47.2421 4.52745 50.0214 6.88252 50.7724C8.19947 51.1923 9.68504 51.1659 11.0607 50.7936C12.8783 50.3016 14.504 49.2057 15.2953 47.7374C16.944 44.6803 18.1069 36.2226 18.1419 27.0343C18.1974 12.7366 15.7689 5.94921 9.94707 4.95123C8.89857 4.77149 7.74001 4.77954 6.46607 4.96532Z" fill="#516609"/>
</g>
<path d="M10.1857 73.687C10.4969 73.473 10.8665 73.2007 11.2944 72.87C11.7418 72.5199 12.1892 72.1503 12.6366 71.7613C13.084 71.3722 13.5022 70.9638 13.8912 70.5358C14.2803 70.1079 14.5818 69.6994 14.7957 69.3104C15.0292 68.9019 15.1459 68.5226 15.1459 68.1724C15.1459 67.8223 14.9708 67.5305 14.6207 67.2971C13.9982 67.2971 13.3174 67.3263 12.5782 67.3846C11.8391 67.4235 11.0999 67.443 10.3607 67.443C9.62156 67.4235 8.90185 67.3555 8.20158 67.2387C7.52077 67.122 6.90804 66.9081 6.36339 66.5968C5.81874 66.2856 5.38108 65.8479 5.0504 65.2838C4.73917 64.7003 4.58355 63.9611 4.58355 63.0663C4.58355 62.0159 4.77807 61.0725 5.16711 60.2361C5.57559 59.3802 6.11052 58.6313 6.77188 57.9894C7.43324 57.3281 8.1724 56.7542 8.98938 56.2679C9.82581 55.7622 10.6622 55.3343 11.4987 54.9841C12.0044 55.1203 12.4712 55.3634 12.8992 55.7136C13.3271 56.0637 13.6967 56.4527 14.0079 56.8807C13.8718 57.3086 13.5994 57.6393 13.191 57.8727C12.8019 58.1061 12.3448 58.3104 11.8196 58.4854C11.3139 58.6605 10.7789 58.8453 10.2148 59.0398C9.65074 59.2343 9.13527 59.4969 8.66842 59.8276C8.22103 60.1388 7.84172 60.5571 7.5305 61.0823C7.21927 61.588 7.06365 62.2591 7.06365 63.0955C7.06365 63.718 7.21927 64.1751 7.5305 64.4669C7.84172 64.7586 8.25021 64.9629 8.75596 65.0796C9.2617 65.1769 9.83553 65.2158 10.4774 65.1963C11.1193 65.1574 11.771 65.1088 12.4323 65.0504C13.1132 64.9921 13.7745 64.9629 14.4164 64.9629C15.0583 64.9434 15.6322 65.0212 16.1379 65.1963C16.6437 65.3519 17.0424 65.6145 17.3342 65.9841C17.6454 66.3537 17.801 66.8983 17.801 67.6181C17.801 67.9293 17.694 68.328 17.4801 68.8143C17.2856 69.3006 17.0132 69.8258 16.6631 70.3899C16.3324 70.9346 15.9337 71.4792 15.4668 72.0239C15.0194 72.5685 14.5429 73.0645 14.0371 73.5119C13.5508 73.9399 13.0548 74.2997 12.5491 74.5915C12.0628 74.8638 11.6056 75 11.1777 75C10.7692 75 10.4969 74.8541 10.3607 74.5623C10.244 74.2706 10.1857 73.9788 10.1857 73.687ZM31.5145 71.2361C30.7754 71.7418 30.1335 72.1989 29.5888 72.6074C29.0636 72.9965 28.5481 73.3271 28.0424 73.5995C27.5366 73.8718 26.992 74.076 26.4084 74.2122C25.8443 74.3484 25.1441 74.4164 24.3076 74.4164C22.4986 74.4164 21.1565 73.9399 20.2811 72.9867C19.4058 72.0142 18.9681 70.5747 18.9681 68.6684C18.9681 67.9293 19.0654 67.1609 19.2599 66.3634C19.4544 65.5659 19.7365 64.7781 20.1061 64C20.4951 63.2025 20.9522 62.4536 21.4774 61.7533C22.0026 61.0336 22.5959 60.4014 23.2573 59.8568C23.9186 59.3121 24.6189 58.8842 25.358 58.573C26.1167 58.2423 26.9142 58.077 27.7506 58.077C29.1511 58.2131 30.2502 58.5633 31.0477 59.1274C31.8452 59.672 32.4482 60.382 32.8567 61.2573C33.2652 62.1132 33.5472 63.0761 33.7029 64.1459C33.8585 65.1963 33.9752 66.2856 34.053 67.4138C34.1502 68.542 34.267 69.6702 34.4031 70.7984C34.5393 71.9266 34.8213 72.9673 35.2493 73.9204C34.9964 74.5623 34.7532 75.0097 34.5198 75.2626C34.3059 75.5349 34.0627 75.5836 33.7904 75.4085C33.5181 75.2334 33.1971 74.8055 32.8275 74.1247C32.4774 73.4439 32.0397 72.481 31.5145 71.2361ZM21.4482 68.7268C21.4482 69.8356 21.6525 70.6525 22.061 71.1777C22.4889 71.6835 23.2378 71.9363 24.3076 71.9363C25.1052 71.9363 25.8638 71.8002 26.5835 71.5279C27.3227 71.2361 27.9646 70.847 28.5092 70.3608C29.0539 69.855 29.4915 69.252 29.8222 68.5517C30.1529 67.8515 30.3182 67.0734 30.3182 66.2175C30.3182 65.8674 30.328 65.3811 30.3474 64.7586C30.3669 64.1167 30.328 63.4846 30.2307 62.8621C30.1335 62.2396 29.9487 61.7047 29.6763 61.2573C29.404 60.7905 28.9955 60.5571 28.4509 60.5571C27.4394 60.5571 26.5057 60.8197 25.6498 61.3449C24.7939 61.8506 24.0548 62.5022 23.4323 63.2998C22.8099 64.0973 22.3236 64.9823 21.9734 65.9549C21.6233 66.9081 21.4482 67.832 21.4482 68.7268ZM37.0875 62.7454C37.0875 62.5703 37.0972 62.3953 37.1166 62.2202C37.1361 62.0257 37.175 61.8603 37.2333 61.7242C37.2917 61.5686 37.3792 61.4421 37.4959 61.3449C37.6321 61.2476 37.8169 61.199 38.0503 61.199C38.2448 61.199 38.4588 61.3546 38.6922 61.6658C38.9451 61.9576 39.198 62.3369 39.4508 62.8037C39.7037 63.2511 39.9469 63.7472 40.1803 64.2918C40.4332 64.8365 40.6471 65.3422 40.8222 65.809C41.0167 66.2564 41.1723 66.6455 41.289 66.9761C41.4058 67.3068 41.4738 67.4819 41.4933 67.5013C41.7462 66.8205 42.0282 66.0814 42.3394 65.2838C42.6507 64.4863 43.03 63.7472 43.4774 63.0663C43.9442 62.3661 44.4889 61.7825 45.1113 61.3157C45.7532 60.8488 46.5313 60.6154 47.4455 60.6154C47.9124 60.6154 48.35 60.6932 48.7585 60.8488C49.1865 60.985 49.556 61.199 49.8673 61.4907C50.198 61.7631 50.4606 62.0938 50.6551 62.4828C50.8496 62.8718 50.9468 63.3192 50.9468 63.825C50.9468 64.2529 50.7718 64.5544 50.4216 64.7295C50.091 64.9045 49.7117 64.9921 49.2837 64.9921H48.9919L47.7373 63.7374C47.6984 63.7374 47.6692 63.7277 47.6498 63.7082C47.6109 63.7082 47.572 63.7082 47.5331 63.7082C47.5136 63.6888 47.4844 63.6791 47.4455 63.6791C46.7647 63.6791 46.2298 63.8736 45.8408 64.2626C45.4712 64.6322 45.1891 65.099 44.9946 65.6632C44.8001 66.2078 44.6736 66.7914 44.6153 67.4138C44.5764 68.0168 44.5569 68.5712 44.5569 69.0769C44.5569 69.466 44.5958 69.8647 44.6736 70.2732C44.7515 70.6623 44.839 71.0513 44.9362 71.4403C45.0335 71.8099 45.121 72.1989 45.1988 72.6074C45.2767 72.9965 45.3156 73.405 45.3156 73.8329C45.3156 74.6499 44.8779 75.0584 44.0026 75.0584C43.5163 75.0584 43.0105 74.8055 42.4853 74.2997C41.9601 73.7745 41.4349 73.1132 40.9097 72.3157C40.404 71.5181 39.9177 70.6428 39.4508 69.6897C38.984 68.7171 38.5755 67.7737 38.2254 66.8594C37.8753 65.9452 37.5932 65.1185 37.3792 64.3793C37.1847 63.6402 37.0875 63.0955 37.0875 62.7454ZM51.3553 62.7454C51.3553 62.2591 51.4331 61.8798 51.5888 61.6075C51.7638 61.3351 52.1237 61.199 52.6683 61.199C52.7267 61.199 52.8337 61.2087 52.9893 61.2281C53.1643 61.2281 53.2713 61.2281 53.3102 61.2281C53.4464 61.8312 53.5826 62.4925 53.7187 63.2122C53.8743 63.9125 54.0494 64.6225 54.2439 65.3422C54.4384 66.0619 54.6524 66.7719 54.8858 67.4722C55.1387 68.1724 55.4402 68.8046 55.7903 69.3687C56.1405 68.9991 56.3933 68.5615 56.549 68.0557C56.7046 67.55 56.8213 67.0442 56.8991 66.5385C56.9769 66.0133 57.045 65.5173 57.1033 65.0504C57.1811 64.5641 57.327 64.1556 57.541 63.825C57.755 63.4748 58.0662 63.222 58.4747 63.0663C58.9026 62.9107 59.4862 62.9107 60.2253 63.0663C61.0423 63.0663 61.6939 63.222 62.1802 63.5332C62.6665 63.825 63.0848 64.2043 63.4349 64.6711C63.8045 65.1185 64.1546 65.6048 64.4853 66.13C64.8354 66.6357 65.2731 67.0929 65.7983 67.5013C65.915 67.2485 66.0609 66.9372 66.2359 66.5677C66.411 66.1786 66.625 65.7799 66.8778 65.3714C67.1502 64.9434 67.4322 64.5252 67.724 64.1167C68.0352 63.6888 68.3562 63.3095 68.6869 62.9788C69.0175 62.6287 69.3579 62.3466 69.7081 62.1327C70.0582 61.8992 70.3986 61.7825 70.7293 61.7825C71.5268 61.7825 72.2174 62.0354 72.8009 62.5411C73.3845 63.0274 73.8805 63.6499 74.289 64.4085C74.7169 65.1477 75.067 65.9841 75.3394 66.9178C75.6117 67.832 75.8257 68.7171 75.9813 69.573C76.1369 70.4288 76.2439 71.2166 76.3022 71.9363C76.38 72.6366 76.4189 73.1424 76.4189 73.4536C76.4189 73.7065 76.3606 73.901 76.2439 74.0371C76.1272 74.1733 75.9813 74.2803 75.8062 74.3581C75.6311 74.4164 75.4366 74.4554 75.2227 74.4748C75.0281 74.4943 74.8433 74.504 74.6683 74.504C74.6294 74.504 74.571 74.504 74.4932 74.504C74.4154 74.4845 74.3279 74.4651 74.2306 74.4456C74.1528 74.4262 74.0458 74.397 73.9097 74.3581L72.0131 65.634C72.0131 65.5756 71.9353 65.4686 71.7797 65.313C71.6241 65.138 71.5074 65.031 71.4296 64.9921C71.3712 64.9921 71.3226 64.9823 71.2837 64.9629C71.2448 64.9629 71.2156 64.9629 71.1961 64.9629C71.1767 64.9434 71.1572 64.9337 71.1378 64.9337C70.7293 64.9337 70.3403 65.099 69.9707 65.4297C69.6205 65.7604 69.2899 66.1786 68.9786 66.6844C68.6674 67.1901 68.3756 67.7542 68.1033 68.3767C67.831 68.9991 67.5878 69.6216 67.3739 70.244C67.1599 70.847 66.9654 71.4111 66.7903 71.9363C66.6347 72.4421 66.5083 72.8311 66.411 73.1035C66.3332 73.1424 66.1776 73.1813 65.9442 73.2202C65.7107 73.2396 65.5551 73.2493 65.4773 73.2493C64.9327 73.2493 64.5145 73.0645 64.2227 72.695C63.9309 72.3059 63.6878 71.8294 63.4932 71.2653C63.3182 70.7012 63.1626 70.0884 63.0264 69.4271C62.9097 68.7463 62.7541 68.1238 62.5596 67.5597C62.3845 66.9956 62.1316 66.5288 61.8009 66.1592C61.4897 65.7701 61.0423 65.5756 60.4588 65.5756C60.2448 65.5756 60.0405 65.7896 59.846 66.2175C59.6515 66.6455 59.4764 67.1901 59.3208 67.8515C59.1652 68.4934 59.0193 69.1936 58.8832 69.9523C58.747 70.6914 58.6303 71.3917 58.533 72.0531C58.4552 72.695 58.3969 73.2396 58.358 73.687C58.3191 74.1344 58.2996 74.3581 58.2996 74.3581C58.2607 74.4164 58.1829 74.4845 58.0662 74.5623C57.9495 74.6207 57.823 74.6888 57.6869 74.7666C57.5702 74.8444 57.4437 74.9027 57.3076 74.9416C57.1909 74.9805 57.1033 75 57.045 75C56.5003 75 55.9751 74.7569 55.4694 74.2706C54.9636 73.7648 54.4968 73.1229 54.0689 72.3448C53.6604 71.5473 53.2811 70.672 52.9309 69.7188C52.6002 68.7657 52.3182 67.832 52.0848 66.9178C51.8514 66.0036 51.6666 65.1769 51.5304 64.4377C51.4137 63.6985 51.3553 63.1344 51.3553 62.7454ZM90.1616 71.2361C89.4224 71.7418 88.7805 72.1989 88.2359 72.6074C87.7107 72.9965 87.1952 73.3271 86.6895 73.5995C86.1837 73.8718 85.6391 74.076 85.0555 74.2122C84.4914 74.3484 83.7912 74.4164 82.9547 74.4164C81.1457 74.4164 79.8035 73.9399 78.9282 72.9867C78.0529 72.0142 77.6152 70.5747 77.6152 68.6684C77.6152 67.9293 77.7125 67.1609 77.907 66.3634C78.1015 65.5659 78.3836 64.7781 78.7532 64C79.1422 63.2025 79.5993 62.4536 80.1245 61.7533C80.6497 61.0336 81.243 60.4014 81.9043 59.8568C82.5657 59.3121 83.266 58.8842 84.0051 58.573C84.7637 58.2423 85.5613 58.077 86.3977 58.077C87.7982 58.2131 88.8972 58.5633 89.6948 59.1274C90.4923 59.672 91.0953 60.382 91.5038 61.2573C91.9123 62.1132 92.1943 63.0761 92.3499 64.1459C92.5056 65.1963 92.6223 66.2856 92.7001 67.4138C92.7973 68.542 92.914 69.6702 93.0502 70.7984C93.1864 71.9266 93.4684 72.9673 93.8964 73.9204C93.6435 74.5623 93.4003 75.0097 93.1669 75.2626C92.9529 75.5349 92.7098 75.5836 92.4375 75.4085C92.1651 75.2334 91.8442 74.8055 91.4746 74.1247C91.1245 73.4439 90.6868 72.481 90.1616 71.2361ZM80.0953 68.7268C80.0953 69.8356 80.2996 70.6525 80.7081 71.1777C81.136 71.6835 81.8849 71.9363 82.9547 71.9363C83.7523 71.9363 84.5109 71.8002 85.2306 71.5279C85.9698 71.2361 86.6117 70.847 87.1563 70.3608C87.701 69.855 88.1386 69.252 88.4693 68.5517C88.8 67.8515 88.9653 67.0734 88.9653 66.2175C88.9653 65.8674 88.9751 65.3811 88.9945 64.7586C89.014 64.1167 88.9751 63.4846 88.8778 62.8621C88.7805 62.2396 88.5957 61.7047 88.3234 61.2573C88.0511 60.7905 87.6426 60.5571 87.098 60.5571C86.0865 60.5571 85.1528 60.8197 84.2969 61.3449C83.441 61.8506 82.7019 62.5022 82.0794 63.2998C81.4569 64.0973 80.9707 64.9823 80.6205 65.9549C80.2704 66.9081 80.0953 67.832 80.0953 68.7268ZM99.2067 72.6366C100.082 72.6366 100.52 73.0937 100.52 74.008C100.306 74.5721 100.033 74.9416 99.7027 75.1167C99.372 75.3112 99.0608 75.3793 98.769 75.321C98.4967 75.2821 98.2438 75.1459 98.0104 74.9125C97.7964 74.679 97.6797 74.4164 97.6603 74.1247C97.6408 73.8329 97.7478 73.5508 97.9812 73.2785C98.2146 72.9867 98.6231 72.7728 99.2067 72.6366ZM95.4428 84.191C96.0069 84.191 96.5223 84.3368 96.9892 84.6286C97.456 84.9204 97.952 85.2316 98.4772 85.5623C98.983 85.9124 99.5374 86.2334 100.14 86.5252C100.743 86.817 101.444 86.9628 102.241 86.9628C103.039 86.9628 103.817 86.8559 104.575 86.6419C105.334 86.4474 106.015 86.1361 106.618 85.7082C107.221 85.2997 107.707 84.7551 108.077 84.0743C108.446 83.4129 108.631 82.6251 108.631 81.7109C108.631 80.1936 108.505 78.618 108.252 76.9841C108.018 75.3501 107.707 73.7259 107.318 72.1114C106.948 70.4775 106.54 68.8921 106.093 67.3555C105.665 65.8188 105.266 64.3988 104.896 63.0955C104.896 63.0761 104.887 63.0274 104.867 62.9496C104.848 62.8718 104.838 62.8232 104.838 62.8037C104.838 62.4147 104.974 62.1521 105.246 62.0159C105.519 61.8603 105.811 61.7825 106.122 61.7825C106.2 61.7825 106.316 61.7922 106.472 61.8117C106.628 61.8312 106.725 61.8409 106.764 61.8409C107.367 63.3581 107.931 64.9143 108.456 66.5093C109.001 68.0849 109.477 69.6897 109.886 71.3236C110.294 72.9576 110.615 74.5915 110.849 76.2255C111.082 77.8789 111.199 79.5128 111.199 81.1273C111.199 82.3917 110.975 83.5393 110.528 84.5703C110.1 85.6012 109.497 86.4765 108.719 87.1963C107.941 87.916 107.007 88.4704 105.918 88.8594C104.848 89.2484 103.681 89.4429 102.416 89.4429C101.58 89.4429 100.753 89.3457 99.9361 89.1512C99.0997 88.9761 98.3508 88.6843 97.6895 88.2758C97.0086 87.8673 96.464 87.3227 96.0555 86.6419C95.647 85.9805 95.4428 85.1635 95.4428 84.191ZM102.3 54.6632C102.3 54.6048 102.3 54.4881 102.3 54.313C102.3 54.138 102.319 53.9629 102.358 53.7878C102.397 53.5933 102.465 53.428 102.562 53.2918C102.659 53.1557 102.805 53.0876 103 53.0876C103.33 53.0876 103.583 53.1362 103.758 53.2335C103.933 53.3113 104.06 53.4183 104.138 53.5544C104.216 53.6711 104.264 53.8267 104.284 54.0213C104.303 54.1963 104.313 54.4006 104.313 54.634C104.313 54.7896 104.303 54.9647 104.284 55.1592C104.264 55.3537 104.225 55.5385 104.167 55.7136C104.109 55.8886 104.011 56.0345 103.875 56.1512C103.739 56.2485 103.554 56.2971 103.321 56.2971C103.087 56.2971 102.903 56.2485 102.766 56.1512C102.63 56.0345 102.523 55.8984 102.445 55.7427C102.387 55.5871 102.348 55.4121 102.329 55.2176C102.309 55.023 102.3 54.8382 102.3 54.6632ZM116.742 73.687C117.054 73.473 117.423 73.2007 117.851 72.87C118.299 72.5199 118.746 72.1503 119.193 71.7613C119.641 71.3722 120.059 70.9638 120.448 70.5358C120.837 70.1079 121.139 69.6994 121.353 69.3104C121.586 68.9019 121.703 68.5226 121.703 68.1724C121.703 67.8223 121.528 67.5305 121.177 67.2971C120.555 67.2971 119.874 67.3263 119.135 67.3846C118.396 67.4235 117.657 67.443 116.918 67.443C116.178 67.4235 115.459 67.3555 114.758 67.2387C114.078 67.122 113.465 66.9081 112.92 66.5968C112.376 66.2856 111.938 65.8479 111.607 65.2838C111.296 64.7003 111.14 63.9611 111.14 63.0663C111.14 62.0159 111.335 61.0725 111.724 60.2361C112.132 59.3802 112.667 58.6313 113.329 57.9894C113.99 57.3281 114.729 56.7542 115.546 56.2679C116.383 55.7622 117.219 55.3343 118.055 54.9841C118.561 55.1203 119.028 55.3634 119.456 55.7136C119.884 56.0637 120.254 56.4527 120.565 56.8807C120.429 57.3086 120.156 57.6393 119.748 57.8727C119.359 58.1061 118.902 58.3104 118.376 58.4854C117.871 58.6605 117.336 58.8453 116.772 59.0398C116.208 59.2343 115.692 59.4969 115.225 59.8276C114.778 60.1388 114.399 60.5571 114.087 61.0823C113.776 61.588 113.62 62.2591 113.62 63.0955C113.62 63.718 113.776 64.1751 114.087 64.4669C114.399 64.7586 114.807 64.9629 115.313 65.0796C115.818 65.1769 116.392 65.2158 117.034 65.1963C117.676 65.1574 118.328 65.1088 118.989 65.0504C119.67 64.9921 120.331 64.9629 120.973 64.9629C121.615 64.9434 122.189 65.0212 122.695 65.1963C123.2 65.3519 123.599 65.6145 123.891 65.9841C124.202 66.3537 124.358 66.8983 124.358 67.6181C124.358 67.9293 124.251 68.328 124.037 68.8143C123.842 69.3006 123.57 69.8258 123.22 70.3899C122.889 70.9346 122.49 71.4792 122.024 72.0239C121.576 72.5685 121.1 73.0645 120.594 73.5119C120.108 73.9399 119.612 74.2997 119.106 74.5915C118.62 74.8638 118.162 75 117.734 75C117.326 75 117.054 74.8541 116.918 74.5623C116.801 74.2706 116.742 73.9788 116.742 73.687Z" fill="#516609"/>
<path d="M125.715 69.3325C128.313 74.0496 131.884 78.1606 136.191 81.3931C140.498 84.6255 145.443 86.9056 150.698 88.0821C155.953 89.2586 161.399 89.3047 166.673 88.2173C171.947 87.1299 176.93 84.9339 181.292 81.7748C185.653 78.6157 189.293 74.5657 191.97 69.8932C194.648 65.2207 196.302 60.0325 196.822 54.6725C197.343 49.3125 196.718 43.903 194.989 38.8027C193.261 33.7024 190.468 29.0278 186.796 25.0887L159 51L125.715 69.3325Z" fill="#FCDE00"/>
<path d="M128.665 67.5468C131.018 71.82 134.253 75.5442 138.155 78.4725C142.057 81.4008 146.537 83.4663 151.297 84.5321C156.058 85.5979 160.991 85.6396 165.769 84.6546C170.547 83.6695 175.061 81.6801 179.012 78.8183C182.963 75.9565 186.26 72.2876 188.686 68.0548C191.111 63.822 192.61 59.122 193.081 54.2663C193.553 49.4106 192.987 44.5102 191.421 39.8898C189.855 35.2695 187.325 31.0347 183.998 27.4663L158.818 50.9394L128.665 67.5468Z" fill="#FFFCED"/>
<path d="M166.824 52.2458C165.24 52.1064 164.253 53.9253 165.233 55.1778L178.239 71.7895C179.04 72.8117 180.623 72.69 181.257 71.5575L189.517 56.8169C190.162 55.6658 189.405 54.2326 188.091 54.1169L166.824 52.2458Z" fill="#FCDE00"/>
<path d="M162.425 58.3665C161.448 57.1114 159.444 57.6279 159.195 59.199L155.893 80.0366C155.69 81.3188 156.857 82.3947 158.119 82.0878L174.537 78.094C175.819 77.7821 176.353 76.2513 175.542 75.2102L162.425 58.3665Z" fill="#FCDE00"/>
<path d="M153.065 57.5663C153.449 56.0227 151.806 54.7648 150.416 55.5386L131.983 65.8025C130.849 66.434 130.723 68.0165 131.743 68.8195L145.019 79.2721C146.056 80.0884 147.59 79.5632 147.909 78.2827L153.065 57.5663Z" fill="#FCDE00"/>
<path d="M165.044 45.1602C163.889 46.2533 164.595 48.1986 166.182 48.296L187.24 49.5867C188.536 49.6661 189.495 48.4011 189.069 47.1749L183.521 31.2146C183.088 29.9682 181.513 29.5839 180.554 30.4906L165.044 45.1602Z" fill="#FCDE00"/>
<path d="M8.75629 25.378C8.34419 24.8093 7.93593 23.6008 7.11399 23.4981C6.03135 23.3627 5.21578 25.0115 5.01044 25.8252C4.7302 26.9358 4.79019 27.8463 5.42276 28.7814C6.11679 29.8073 6.24042 31.0069 6.24042 32.2197C6.24042 33.2711 6.49629 35.5259 8.13431 34.6587C10.6229 33.3412 10.7641 30.3059 11.5238 27.9637C12.426 25.1819 14.0427 21.6462 12.7817 18.7389C12.0684 17.0943 10.4958 15.9228 8.67942 15.8246C7.35882 15.7533 6.07894 15.3998 5.36685 16.824C5.02416 17.5094 4.77648 18.2023 4.35352 18.8367" stroke="#667F0E" stroke-width="2" stroke-linecap="round"/>
<path d="M3.0957 35.1898C3.63188 36.4272 3.85047 37.3967 3.85047 38.74C3.85047 39.8868 3.83218 40.8583 4.47943 41.8569C5.54104 43.4948 7.41997 45.979 9.50419 44.1142C10.6376 43.1001 11.5118 41.7564 11.8454 40.2705C12.1281 39.011 12.0051 37.6182 12.3485 36.3919C12.5676 35.6096 13.4895 35.0766 13.907 34.3722C14.2548 33.7852 14.4171 33.1004 14.4171 32.4224" stroke="#667F0E" stroke-width="2" stroke-linecap="round"/>
<path d="M7.24658 11.7922C8.53058 11.6342 10.1323 11.5356 11.272 12.2954" stroke="#667F0E" stroke-width="2" stroke-linecap="round"/>
<defs>
<filter id="filter0_i_850_12719" x="0.511719" y="4.82129" width="17.6313" height="48.2588" filterUnits="userSpaceOnUse" color-interpolation-filters="sRGB">
<feFlood flood-opacity="0" result="BackgroundImageFix"/>
<feBlend mode="normal" in="SourceGraphic" in2="BackgroundImageFix" result="shape"/>
<feColorMatrix in="SourceAlpha" type="matrix" values="0 0 0 0 0 0 0 0 0 0 0 0 0 0 0 0 0 0 127 0" result="hardAlpha"/>
<feOffset dy="2"/>
<feGaussianBlur stdDeviation="1"/>
<feComposite in2="hardAlpha" operator="arithmetic" k2="-1" k3="1"/>
<feColorMatrix type="matrix" values="0 0 0 0 0.2749 0 0 0 0 0.345833 0 0 0 0 0.0317014 0 0 0 1 0"/>
<feBlend mode="normal" in2="shape" result="effect1_innerShadow_850_12719"/>
</filter>
<linearGradient id="paint0_linear_850_12719" x1="100" y1="-6.5" x2="102" y2="35.5" gradientUnits="userSpaceOnUse">
<stop offset="0.154412" stop-color="#91B027"/>
<stop offset="1" stop-color="#506507"/>
</linearGradient>
</defs>
</svg>
