<svg width="198" height="92" viewBox="0 0 198 92" fill="none" xmlns="http://www.w3.org/2000/svg">
<path d="M190.454 47.7903L190.092 48.7017C189.793 49.4553 189.068 49.9537 188.258 49.9636L166.703 50.2279C165.379 50.2667 163.889 50.2807 162.358 50.2812C160.358 50.2819 158.289 50.2597 156.429 50.2397C153.933 50.2129 151.812 50.1901 150.739 50.2321C149.935 50.2635 149.261 50.2748 148.658 50.2417L129.121 50.3315C126.564 50.3804 123.196 50.3849 118.837 50.3907C117.59 50.3923 116.261 50.3941 114.848 50.397C86.6083 50.4563 64.9957 50.624 62.9948 50.7991C62.7577 50.8198 62.5637 50.8219 62.4164 50.7966L43.821 50.7166L28.1876 50.6493L15.893 50.6941C13.9776 51.0805 11.913 51.1219 10.0872 50.7152C6.82227 49.9879 4.58562 47.2245 3.31312 42.3451C1.8396 36.6986 1.0379 22.2229 1.84825 15.8947C2.82871 8.23261 4.86831 5.47408 9.9732 4.90033C11.7453 4.70158 13.3554 4.68177 14.8105 4.85092L27.4723 4.72159C27.8046 4.68496 28.2132 4.68152 28.7014 4.70904L49.4801 4.4968L57.6601 4.56912C62.159 4.60929 71.6093 4.61319 78.6605 4.57853C85.7117 4.54387 97.0157 4.50478 103.78 4.49232C122.099 4.45664 141.181 4.3644 145.831 4.28761C146.668 4.27366 147.418 4.26397 148.083 4.26314L177.154 3.94722C178.6 3.7806 181.423 3.97296 183.426 4.37521C191.403 5.97495 196.401 18.8958 194.174 32.1589C194.174 32.1589 193.27 37.2896 192.482 40.5309C191.788 43.3914 190.454 47.7903 190.454 47.7903Z" fill="#667F0E"/>
<path fill-rule="evenodd" clip-rule="evenodd" d="M177.154 3.94694C175.708 4.11356 172.654 4.30906 170.366 4.3824C168.079 4.45476 165.259 4.92904 164.101 5.43541C162.059 6.32779 162.017 6.56324 162.703 13.2699C163.487 20.9183 165.755 27.0542 170.98 35.6633C172.233 37.7271 173.201 39.7005 174.071 41.4744C176.828 47.0966 178.602 50.7139 185.347 48.8451L190.454 47.79C190.454 47.79 191.788 43.3911 192.482 40.5307C193.269 37.2893 194.174 32.1586 194.174 32.1586C196.401 18.8955 191.403 5.97467 183.426 4.37493C181.423 3.97268 178.6 3.78032 177.154 3.94694ZM145.831 4.28733C141.181 4.36412 122.099 4.45635 103.78 4.49204C97.0156 4.5045 85.7117 4.54359 78.6604 4.57825C71.6092 4.61291 62.159 4.60901 57.6601 4.56884L49.4801 4.49651L54.7242 7.65327C57.6088 9.38901 60.2716 11.6696 60.6428 12.7214C61.2665 14.4883 61.8671 14.6436 68.5824 14.7698C72.5787 14.8445 80.6888 15.9391 86.6055 17.2028C95.7694 19.1591 97.9976 19.9782 101.641 22.7303L105.919 25.9608L110.362 23.4436C116.29 20.0842 129.406 17.1374 135.868 17.7124C140.5 18.1254 141.273 17.8745 142.755 15.4843C143.672 14.0023 146.444 10.9879 148.913 8.78405C153.301 4.86749 153.639 4.25593 148.083 4.26286C147.418 4.26369 146.668 4.27338 145.831 4.28733ZM153.735 10.979C151.925 12.3606 148.657 15.8197 146.472 18.6667C142.572 23.7472 142.426 23.8255 138.494 22.9608C133.596 21.8821 127.957 22.4362 127.602 24.0301C127.151 26.0555 130.805 34.9979 133.557 38.6016C135.003 40.4974 138.481 43.9276 141.283 46.2249C145.009 49.2795 146.269 50.11 148.658 50.2414C149.261 50.2745 149.935 50.2632 150.739 50.2318C152.612 50.1585 157.677 50.2826 162.358 50.2809C163.889 50.2804 165.379 50.2664 166.703 50.2277C169.143 50.1562 171.019 50.0006 171.546 49.6901C171.812 49.5323 169.249 42.3149 166.776 38.2399C161.371 29.3284 158.929 22.8802 157.84 14.6342L157.025 8.4663L153.735 10.979ZM115.728 26.3395C112.334 27.8845 108.803 29.8284 107.882 30.6589C105.708 32.6202 103.845 32.1416 101.029 28.8977C98.2052 25.646 93.156 23.1688 86.1399 21.5926C76.7794 19.489 76.3206 19.69 74.7739 26.5693C73.1673 33.717 69.8988 40.2721 64.8715 46.4304C62.214 49.6851 61.6034 50.6568 62.4163 50.7963C62.5636 50.8216 62.7577 50.8196 62.9947 50.7988C64.9957 50.6237 86.6083 50.456 114.848 50.3968C121.202 50.3835 125.832 50.3941 129.121 50.3312C137.811 50.1648 137.131 49.4844 134.138 46.4919C133.887 46.2402 133.619 45.9721 133.338 45.6865C128.307 40.5598 126.622 37.6992 123.991 29.8092L121.898 23.5309L115.728 26.3395Z" fill="#66800E"/>
<path fill-rule="evenodd" clip-rule="evenodd" d="M170.366 4.3824C172.654 4.30906 175.708 4.11356 177.154 3.94694L148.083 4.26286C153.639 4.25593 153.301 4.86749 148.913 8.78405C146.444 10.9879 143.672 14.0023 142.755 15.4843C141.273 17.8745 140.5 18.1254 135.868 17.7124C129.406 17.1374 116.29 20.0842 110.362 23.4436L105.919 25.9608L101.641 22.7303C97.9976 19.9782 95.7694 19.1591 86.6055 17.2028C80.6888 15.9391 72.5787 14.8445 68.5824 14.7698C61.8671 14.6436 61.2665 14.4883 60.6428 12.7214C60.2716 11.6696 57.6088 9.38901 54.7242 7.65327L49.4801 4.49651L28.7013 4.70875C29.3747 4.7467 30.1996 4.84352 31.1843 4.9933C35.1967 5.60331 46.1023 8.49778 46.6188 9.09027C47.3015 9.87038 30 36 18 40C6 44 16.1344 43.6932 16.1344 43.6932C15.8336 45.5333 12.7652 49.5119 12.3461 50.9938L34.4677 36.291C39.9444 32.3649 44.8028 25.875 48.2206 17.9229C50.8424 11.824 51.0466 11.6113 53.2766 12.689C54.5549 13.3067 56.2668 15.1142 57.0804 16.7051C58.456 19.3967 58.8775 19.5971 63.1024 19.566C63.2725 19.5647 63.4393 19.5634 63.6026 19.5622C67.5251 19.5318 69.4992 19.5166 70.2305 20.4623C70.9714 21.4205 70.4366 23.3651 69.36 27.28C69.3156 27.4415 69.2703 27.6062 69.2241 27.7744C67.585 33.7387 66.1892 36.5321 62.3392 41.5449C59.6837 45.0032 56.3838 48.4799 55.0082 49.2697C53.9818 49.8587 49.157 50.3973 43.8209 50.7163L62.4163 50.7963C61.6034 50.6568 62.214 49.6851 64.8715 46.4304C69.8988 40.2721 73.1673 33.717 74.7739 26.5693C76.3206 19.69 76.7794 19.489 86.1399 21.5926C93.156 23.1688 98.2052 25.646 101.029 28.8977C103.845 32.1416 105.708 32.6202 107.882 30.6589C108.803 29.8284 112.334 27.8845 115.728 26.3395L121.898 23.5309L123.991 29.8092C126.622 37.6992 128.307 40.5598 133.338 45.6865C133.619 45.9721 133.887 46.2402 134.138 46.4919C137.131 49.4844 137.811 50.1648 129.121 50.3312L148.658 50.2414C146.269 50.11 145.009 49.2795 141.283 46.2249C138.481 43.9276 135.003 40.4974 133.557 38.6016C130.805 34.9979 127.151 26.0555 127.602 24.0301C127.957 22.4362 133.596 21.8821 138.494 22.9608C142.426 23.8255 142.572 23.7472 146.472 18.6667C148.657 15.8197 151.925 12.3606 153.735 10.979L157.025 8.4663L157.84 14.6342C158.929 22.8802 161.371 29.3284 166.776 38.2399C169.249 42.3149 171.812 49.5323 171.546 49.6901C171.019 50.0006 169.143 50.1562 166.703 50.2277L162.358 50.2809C163.889 50.2804 165.379 50.2664 166.703 50.2277L188.258 49.9633C189.068 49.9534 189.793 49.455 190.092 48.7015L190.454 47.79L185.347 48.8451C178.602 50.7139 176.828 47.0966 174.071 41.4744C173.201 39.7005 172.233 37.7271 170.98 35.6633C165.755 27.0542 163.487 20.9183 162.703 13.2699C162.017 6.56324 162.059 6.32779 164.101 5.43541C165.259 4.92904 168.079 4.45476 170.366 4.3824Z" fill="#516609"/>
<path fill-rule="evenodd" clip-rule="evenodd" d="M103.78 4.49211C122.099 4.45642 141.181 4.36418 145.831 4.2874C146.668 4.27345 147.417 4.26375 148.083 4.26293C153.639 4.256 153.301 4.86756 148.913 8.78412C146.443 10.9879 143.672 14.0024 142.754 15.4844C141.273 17.8746 140.5 18.1255 135.868 17.7124C129.406 17.1375 116.29 20.0842 110.362 23.4436L105.919 25.9609L101.641 22.7304C97.9975 19.9783 95.7693 19.1592 86.6054 17.2029C80.6886 15.9391 72.5786 14.8446 68.5823 14.7698C61.867 14.6437 61.2664 14.4884 60.6427 12.7215C60.2715 11.6696 57.6087 9.38907 54.7241 7.65334L49.48 4.49658L57.66 4.5689C62.1589 4.60907 71.6091 4.61297 78.6603 4.57832C85.7116 4.54366 97.0155 4.50457 103.78 4.49211Z" fill="url(#paint0_linear_850_12719)"/>
<g filter="url(#filter0_i_850_12719)">
<path fill-rule="evenodd" clip-rule="evenodd" d="M7.46607 4.96532C3.79633 5.50171 2.34858 8.24483 1.69888 15.8983C1.16186 22.2194 1.84449 36.6982 2.94617 42.3543C3.89759 47.2421 5.52745 50.0214 7.88252 50.7724C9.19948 51.1923 10.685 51.1659 12.0607 50.7936C13.8783 50.3016 15.504 49.2057 16.2953 47.7374C17.944 44.6803 19.1069 36.2226 19.1419 27.0343C19.1974 12.7366 16.7689 5.94921 10.9471 4.95123C9.89857 4.77149 8.74001 4.77954 7.46607 4.96532Z" fill="#516609"/>
</g>
<path d="M11.1857 73.687C11.4969 73.473 11.8665 73.2007 12.2944 72.87C12.7418 72.5199 13.1892 72.1503 13.6366 71.7613C14.084 71.3722 14.5022 70.9638 14.8912 70.5358C15.2803 70.1079 15.5818 69.6994 15.7957 69.3104C16.0292 68.9019 16.1459 68.5226 16.1459 68.1724C16.1459 67.8223 15.9708 67.5305 15.6207 67.2971C14.9982 67.2971 14.3174 67.3263 13.5782 67.3846C12.8391 67.4235 12.0999 67.443 11.3607 67.443C10.6216 67.4235 9.90185 67.3555 9.20158 67.2387C8.52077 67.122 7.90804 66.9081 7.36339 66.5968C6.81874 66.2856 6.38108 65.8479 6.0504 65.2838C5.73917 64.7003 5.58355 63.9611 5.58355 63.0663C5.58355 62.0159 5.77807 61.0725 6.16711 60.2361C6.57559 59.3802 7.11052 58.6313 7.77188 57.9894C8.43324 57.3281 9.1724 56.7542 9.98938 56.2679C10.8258 55.7622 11.6622 55.3343 12.4987 54.9841C13.0044 55.1203 13.4712 55.3634 13.8992 55.7136C14.3271 56.0637 14.6967 56.4527 15.0079 56.8807C14.8718 57.3086 14.5994 57.6393 14.191 57.8727C13.8019 58.1061 13.3448 58.3104 12.8196 58.4854C12.3139 58.6605 11.7789 58.8453 11.2148 59.0398C10.6507 59.2343 10.1353 59.4969 9.66842 59.8276C9.22103 60.1388 8.84172 60.5571 8.5305 61.0823C8.21927 61.588 8.06365 62.2591 8.06365 63.0955C8.06365 63.718 8.21927 64.1751 8.5305 64.4669C8.84172 64.7586 9.25021 64.9629 9.75596 65.0796C10.2617 65.1769 10.8355 65.2158 11.4774 65.1963C12.1193 65.1574 12.771 65.1088 13.4323 65.0504C14.1132 64.9921 14.7745 64.9629 15.4164 64.9629C16.0583 64.9434 16.6322 65.0212 17.1379 65.1963C17.6437 65.3519 18.0424 65.6145 18.3342 65.9841C18.6454 66.3537 18.801 66.8983 18.801 67.6181C18.801 67.9293 18.694 68.328 18.4801 68.8143C18.2856 69.3006 18.0132 69.8258 17.6631 70.3899C17.3324 70.9346 16.9337 71.4792 16.4668 72.0239C16.0194 72.5685 15.5429 73.0645 15.0371 73.5119C14.5508 73.9399 14.0548 74.2997 13.5491 74.5915C13.0628 74.8638 12.6056 75 12.1777 75C11.7692 75 11.4969 74.8541 11.3607 74.5623C11.244 74.2706 11.1857 73.9788 11.1857 73.687ZM32.5145 71.2361C31.7754 71.7418 31.1335 72.1989 30.5888 72.6074C30.0636 72.9965 29.5481 73.3271 29.0424 73.5995C28.5366 73.8718 27.992 74.076 27.4084 74.2122C26.8443 74.3484 26.1441 74.4164 25.3076 74.4164C23.4986 74.4164 22.1565 73.9399 21.2811 72.9867C20.4058 72.0142 19.9681 70.5747 19.9681 68.6684C19.9681 67.9293 20.0654 67.1609 20.2599 66.3634C20.4544 65.5659 20.7365 64.7781 21.1061 64C21.4951 63.2025 21.9522 62.4536 22.4774 61.7533C23.0026 61.0336 23.5959 60.4014 24.2573 59.8568C24.9186 59.3121 25.6189 58.8842 26.358 58.573C27.1167 58.2423 27.9142 58.077 28.7506 58.077C30.1511 58.2131 31.2502 58.5633 32.0477 59.1274C32.8452 59.672 33.4482 60.382 33.8567 61.2573C34.2652 62.1132 34.5472 63.0761 34.7029 64.1459C34.8585 65.1963 34.9752 66.2856 35.053 67.4138C35.1502 68.542 35.267 69.6702 35.4031 70.7984C35.5393 71.9266 35.8213 72.9673 36.2493 73.9204C35.9964 74.5623 35.7532 75.0097 35.5198 75.2626C35.3059 75.5349 35.0627 75.5836 34.7904 75.4085C34.5181 75.2334 34.1971 74.8055 33.8275 74.1247C33.4774 73.4439 33.0397 72.481 32.5145 71.2361ZM22.4482 68.7268C22.4482 69.8356 22.6525 70.6525 23.061 71.1777C23.4889 71.6835 24.2378 71.9363 25.3076 71.9363C26.1052 71.9363 26.8638 71.8002 27.5835 71.5279C28.3227 71.2361 28.9646 70.847 29.5092 70.3608C30.0539 69.855 30.4915 69.252 30.8222 68.5517C31.1529 67.8515 31.3182 67.0734 31.3182 66.2175C31.3182 65.8674 31.328 65.3811 31.3474 64.7586C31.3669 64.1167 31.328 63.4846 31.2307 62.8621C31.1335 62.2396 30.9487 61.7047 30.6763 61.2573C30.404 60.7905 29.9955 60.5571 29.4509 60.5571C28.4394 60.5571 27.5057 60.8197 26.6498 61.3449C25.7939 61.8506 25.0548 62.5022 24.4323 63.2998C23.8099 64.0973 23.3236 64.9823 22.9734 65.9549C22.6233 66.9081 22.4482 67.832 22.4482 68.7268ZM38.0875 62.7454C38.0875 62.5703 38.0972 62.3953 38.1166 62.2202C38.1361 62.0257 38.175 61.8603 38.2333 61.7242C38.2917 61.5686 38.3792 61.4421 38.4959 61.3449C38.6321 61.2476 38.8169 61.199 39.0503 61.199C39.2448 61.199 39.4588 61.3546 39.6922 61.6658C39.9451 61.9576 40.198 62.3369 40.4508 62.8037C40.7037 63.2511 40.9469 63.7472 41.1803 64.2918C41.4332 64.8365 41.6471 65.3422 41.8222 65.809C42.0167 66.2564 42.1723 66.6455 42.289 66.9761C42.4058 67.3068 42.4738 67.4819 42.4933 67.5013C42.7462 66.8205 43.0282 66.0814 43.3394 65.2838C43.6507 64.4863 44.03 63.7472 44.4774 63.0663C44.9442 62.3661 45.4889 61.7825 46.1113 61.3157C46.7532 60.8488 47.5313 60.6154 48.4455 60.6154C48.9124 60.6154 49.35 60.6932 49.7585 60.8488C50.1865 60.985 50.556 61.199 50.8673 61.4907C51.198 61.7631 51.4606 62.0938 51.6551 62.4828C51.8496 62.8718 51.9468 63.3192 51.9468 63.825C51.9468 64.2529 51.7718 64.5544 51.4216 64.7295C51.091 64.9045 50.7117 64.9921 50.2837 64.9921H49.9919L48.7373 63.7374C48.6984 63.7374 48.6692 63.7277 48.6498 63.7082C48.6109 63.7082 48.572 63.7082 48.5331 63.7082C48.5136 63.6888 48.4844 63.6791 48.4455 63.6791C47.7647 63.6791 47.2298 63.8736 46.8408 64.2626C46.4712 64.6322 46.1891 65.099 45.9946 65.6632C45.8001 66.2078 45.6736 66.7914 45.6153 67.4138C45.5764 68.0168 45.5569 68.5712 45.5569 69.0769C45.5569 69.466 45.5958 69.8647 45.6736 70.2732C45.7515 70.6623 45.839 71.0513 45.9362 71.4403C46.0335 71.8099 46.121 72.1989 46.1988 72.6074C46.2767 72.9965 46.3156 73.405 46.3156 73.8329C46.3156 74.6499 45.8779 75.0584 45.0026 75.0584C44.5163 75.0584 44.0105 74.8055 43.4853 74.2997C42.9601 73.7745 42.4349 73.1132 41.9097 72.3157C41.404 71.5181 40.9177 70.6428 40.4508 69.6897C39.984 68.7171 39.5755 67.7737 39.2254 66.8594C38.8753 65.9452 38.5932 65.1185 38.3792 64.3793C38.1847 63.6402 38.0875 63.0955 38.0875 62.7454ZM52.3553 62.7454C52.3553 62.2591 52.4331 61.8798 52.5888 61.6075C52.7638 61.3351 53.1237 61.199 53.6683 61.199C53.7267 61.199 53.8337 61.2087 53.9893 61.2281C54.1643 61.2281 54.2713 61.2281 54.3102 61.2281C54.4464 61.8312 54.5826 62.4925 54.7187 63.2122C54.8743 63.9125 55.0494 64.6225 55.2439 65.3422C55.4384 66.0619 55.6524 66.7719 55.8858 67.4722C56.1387 68.1724 56.4402 68.8046 56.7903 69.3687C57.1405 68.9991 57.3933 68.5615 57.549 68.0557C57.7046 67.55 57.8213 67.0442 57.8991 66.5385C57.9769 66.0133 58.045 65.5173 58.1033 65.0504C58.1811 64.5641 58.327 64.1556 58.541 63.825C58.755 63.4748 59.0662 63.222 59.4747 63.0663C59.9026 62.9107 60.4862 62.9107 61.2253 63.0663C62.0423 63.0663 62.6939 63.222 63.1802 63.5332C63.6665 63.825 64.0848 64.2043 64.4349 64.6711C64.8045 65.1185 65.1546 65.6048 65.4853 66.13C65.8354 66.6357 66.2731 67.0929 66.7983 67.5013C66.915 67.2485 67.0609 66.9372 67.2359 66.5677C67.411 66.1786 67.625 65.7799 67.8778 65.3714C68.1502 64.9434 68.4322 64.5252 68.724 64.1167C69.0352 63.6888 69.3562 63.3095 69.6869 62.9788C70.0175 62.6287 70.3579 62.3466 70.7081 62.1327C71.0582 61.8992 71.3986 61.7825 71.7293 61.7825C72.5268 61.7825 73.2174 62.0354 73.8009 62.5411C74.3845 63.0274 74.8805 63.6499 75.289 64.4085C75.7169 65.1477 76.067 65.9841 76.3394 66.9178C76.6117 67.832 76.8257 68.7171 76.9813 69.573C77.1369 70.4288 77.2439 71.2166 77.3022 71.9363C77.38 72.6366 77.4189 73.1424 77.4189 73.4536C77.4189 73.7065 77.3606 73.901 77.2439 74.0371C77.1272 74.1733 76.9813 74.2803 76.8062 74.3581C76.6311 74.4164 76.4366 74.4554 76.2227 74.4748C76.0281 74.4943 75.8433 74.504 75.6683 74.504C75.6294 74.504 75.571 74.504 75.4932 74.504C75.4154 74.4845 75.3279 74.4651 75.2306 74.4456C75.1528 74.4262 75.0458 74.397 74.9097 74.3581L73.0131 65.634C73.0131 65.5756 72.9353 65.4686 72.7797 65.313C72.6241 65.138 72.5074 65.031 72.4296 64.9921C72.3712 64.9921 72.3226 64.9823 72.2837 64.9629C72.2448 64.9629 72.2156 64.9629 72.1961 64.9629C72.1767 64.9434 72.1572 64.9337 72.1378 64.9337C71.7293 64.9337 71.3403 65.099 70.9707 65.4297C70.6205 65.7604 70.2899 66.1786 69.9786 66.6844C69.6674 67.1901 69.3756 67.7542 69.1033 68.3767C68.831 68.9991 68.5878 69.6216 68.3739 70.244C68.1599 70.847 67.9654 71.4111 67.7903 71.9363C67.6347 72.4421 67.5083 72.8311 67.411 73.1035C67.3332 73.1424 67.1776 73.1813 66.9442 73.2202C66.7107 73.2396 66.5551 73.2493 66.4773 73.2493C65.9327 73.2493 65.5145 73.0645 65.2227 72.695C64.9309 72.3059 64.6878 71.8294 64.4932 71.2653C64.3182 70.7012 64.1626 70.0884 64.0264 69.4271C63.9097 68.7463 63.7541 68.1238 63.5596 67.5597C63.3845 66.9956 63.1316 66.5288 62.8009 66.1592C62.4897 65.7701 62.0423 65.5756 61.4588 65.5756C61.2448 65.5756 61.0405 65.7896 60.846 66.2175C60.6515 66.6455 60.4764 67.1901 60.3208 67.8515C60.1652 68.4934 60.0193 69.1936 59.8832 69.9523C59.747 70.6914 59.6303 71.3917 59.533 72.0531C59.4552 72.695 59.3969 73.2396 59.358 73.687C59.3191 74.1344 59.2996 74.3581 59.2996 74.3581C59.2607 74.4164 59.1829 74.4845 59.0662 74.5623C58.9495 74.6207 58.823 74.6888 58.6869 74.7666C58.5702 74.8444 58.4437 74.9027 58.3076 74.9416C58.1909 74.9805 58.1033 75 58.045 75C57.5003 75 56.9751 74.7569 56.4694 74.2706C55.9636 73.7648 55.4968 73.1229 55.0689 72.3448C54.6604 71.5473 54.2811 70.672 53.9309 69.7188C53.6002 68.7657 53.3182 67.832 53.0848 66.9178C52.8514 66.0036 52.6666 65.1769 52.5304 64.4377C52.4137 63.6985 52.3553 63.1344 52.3553 62.7454ZM91.1616 71.2361C90.4224 71.7418 89.7805 72.1989 89.2359 72.6074C88.7107 72.9965 88.1952 73.3271 87.6895 73.5995C87.1837 73.8718 86.6391 74.076 86.0555 74.2122C85.4914 74.3484 84.7912 74.4164 83.9547 74.4164C82.1457 74.4164 80.8035 73.9399 79.9282 72.9867C79.0529 72.0142 78.6152 70.5747 78.6152 68.6684C78.6152 67.9293 78.7125 67.1609 78.907 66.3634C79.1015 65.5659 79.3836 64.7781 79.7532 64C80.1422 63.2025 80.5993 62.4536 81.1245 61.7533C81.6497 61.0336 82.243 60.4014 82.9043 59.8568C83.5657 59.3121 84.266 58.8842 85.0051 58.573C85.7637 58.2423 86.5613 58.077 87.3977 58.077C88.7982 58.2131 89.8972 58.5633 90.6948 59.1274C91.4923 59.672 92.0953 60.382 92.5038 61.2573C92.9123 62.1132 93.1943 63.0761 93.3499 64.1459C93.5056 65.1963 93.6223 66.2856 93.7001 67.4138C93.7973 68.542 93.914 69.6702 94.0502 70.7984C94.1864 71.9266 94.4684 72.9673 94.8964 73.9204C94.6435 74.5623 94.4003 75.0097 94.1669 75.2626C93.9529 75.5349 93.7098 75.5836 93.4375 75.4085C93.1651 75.2334 92.8442 74.8055 92.4746 74.1247C92.1245 73.4439 91.6868 72.481 91.1616 71.2361ZM81.0953 68.7268C81.0953 69.8356 81.2996 70.6525 81.7081 71.1777C82.136 71.6835 82.8849 71.9363 83.9547 71.9363C84.7523 71.9363 85.5109 71.8002 86.2306 71.5279C86.9698 71.2361 87.6117 70.847 88.1563 70.3608C88.701 69.855 89.1386 69.252 89.4693 68.5517C89.8 67.8515 89.9653 67.0734 89.9653 66.2175C89.9653 65.8674 89.9751 65.3811 89.9945 64.7586C90.014 64.1167 89.9751 63.4846 89.8778 62.8621C89.7805 62.2396 89.5957 61.7047 89.3234 61.2573C89.0511 60.7905 88.6426 60.5571 88.098 60.5571C87.0865 60.5571 86.1528 60.8197 85.2969 61.3449C84.441 61.8506 83.7019 62.5022 83.0794 63.2998C82.4569 64.0973 81.9707 64.9823 81.6205 65.9549C81.2704 66.9081 81.0953 67.832 81.0953 68.7268ZM100.207 72.6366C101.082 72.6366 101.52 73.0937 101.52 74.008C101.306 74.5721 101.033 74.9416 100.703 75.1167C100.372 75.3112 100.061 75.3793 99.769 75.321C99.4967 75.2821 99.2438 75.1459 99.0104 74.9125C98.7964 74.679 98.6797 74.4164 98.6603 74.1247C98.6408 73.8329 98.7478 73.5508 98.9812 73.2785C99.2146 72.9867 99.6231 72.7728 100.207 72.6366ZM96.4428 84.191C97.0069 84.191 97.5223 84.3368 97.9892 84.6286C98.456 84.9204 98.952 85.2316 99.4772 85.5623C99.983 85.9124 100.537 86.2334 101.14 86.5252C101.743 86.817 102.444 86.9628 103.241 86.9628C104.039 86.9628 104.817 86.8559 105.575 86.6419C106.334 86.4474 107.015 86.1361 107.618 85.7082C108.221 85.2997 108.707 84.7551 109.077 84.0743C109.446 83.4129 109.631 82.6251 109.631 81.7109C109.631 80.1936 109.505 78.618 109.252 76.9841C109.018 75.3501 108.707 73.7259 108.318 72.1114C107.948 70.4775 107.54 68.8921 107.093 67.3555C106.665 65.8188 106.266 64.3988 105.896 63.0955C105.896 63.0761 105.887 63.0274 105.867 62.9496C105.848 62.8718 105.838 62.8232 105.838 62.8037C105.838 62.4147 105.974 62.1521 106.246 62.0159C106.519 61.8603 106.811 61.7825 107.122 61.7825C107.2 61.7825 107.316 61.7922 107.472 61.8117C107.628 61.8312 107.725 61.8409 107.764 61.8409C108.367 63.3581 108.931 64.9143 109.456 66.5093C110.001 68.0849 110.477 69.6897 110.886 71.3236C111.294 72.9576 111.615 74.5915 111.849 76.2255C112.082 77.8789 112.199 79.5128 112.199 81.1273C112.199 82.3917 111.975 83.5393 111.528 84.5703C111.1 85.6012 110.497 86.4765 109.719 87.1963C108.941 87.916 108.007 88.4704 106.918 88.8594C105.848 89.2484 104.681 89.4429 103.416 89.4429C102.58 89.4429 101.753 89.3457 100.936 89.1512C100.1 88.9761 99.3508 88.6843 98.6895 88.2758C98.0086 87.8673 97.464 87.3227 97.0555 86.6419C96.647 85.9805 96.4428 85.1635 96.4428 84.191ZM103.3 54.6632C103.3 54.6048 103.3 54.4881 103.3 54.313C103.3 54.138 103.319 53.9629 103.358 53.7878C103.397 53.5933 103.465 53.428 103.562 53.2918C103.659 53.1557 103.805 53.0876 104 53.0876C104.33 53.0876 104.583 53.1362 104.758 53.2335C104.933 53.3113 105.06 53.4183 105.138 53.5544C105.216 53.6711 105.264 53.8267 105.284 54.0213C105.303 54.1963 105.313 54.4006 105.313 54.634C105.313 54.7896 105.303 54.9647 105.284 55.1592C105.264 55.3537 105.225 55.5385 105.167 55.7136C105.109 55.8886 105.011 56.0345 104.875 56.1512C104.739 56.2485 104.554 56.2971 104.321 56.2971C104.087 56.2971 103.903 56.2485 103.766 56.1512C103.63 56.0345 103.523 55.8984 103.445 55.7427C103.387 55.5871 103.348 55.4121 103.329 55.2176C103.309 55.023 103.3 54.8382 103.3 54.6632ZM117.742 73.687C118.054 73.473 118.423 73.2007 118.851 72.87C119.299 72.5199 119.746 72.1503 120.193 71.7613C120.641 71.3722 121.059 70.9638 121.448 70.5358C121.837 70.1079 122.139 69.6994 122.353 69.3104C122.586 68.9019 122.703 68.5226 122.703 68.1724C122.703 67.8223 122.528 67.5305 122.177 67.2971C121.555 67.2971 120.874 67.3263 120.135 67.3846C119.396 67.4235 118.657 67.443 117.918 67.443C117.178 67.4235 116.459 67.3555 115.758 67.2387C115.078 67.122 114.465 66.9081 113.92 66.5968C113.376 66.2856 112.938 65.8479 112.607 65.2838C112.296 64.7003 112.14 63.9611 112.14 63.0663C112.14 62.0159 112.335 61.0725 112.724 60.2361C113.132 59.3802 113.667 58.6313 114.329 57.9894C114.99 57.3281 115.729 56.7542 116.546 56.2679C117.383 55.7622 118.219 55.3343 119.055 54.9841C119.561 55.1203 120.028 55.3634 120.456 55.7136C120.884 56.0637 121.254 56.4527 121.565 56.8807C121.429 57.3086 121.156 57.6393 120.748 57.8727C120.359 58.1061 119.902 58.3104 119.376 58.4854C118.871 58.6605 118.336 58.8453 117.772 59.0398C117.208 59.2343 116.692 59.4969 116.225 59.8276C115.778 60.1388 115.399 60.5571 115.087 61.0823C114.776 61.588 114.62 62.2591 114.62 63.0955C114.62 63.718 114.776 64.1751 115.087 64.4669C115.399 64.7586 115.807 64.9629 116.313 65.0796C116.818 65.1769 117.392 65.2158 118.034 65.1963C118.676 65.1574 119.328 65.1088 119.989 65.0504C120.67 64.9921 121.331 64.9629 121.973 64.9629C122.615 64.9434 123.189 65.0212 123.695 65.1963C124.2 65.3519 124.599 65.6145 124.891 65.9841C125.202 66.3537 125.358 66.8983 125.358 67.6181C125.358 67.9293 125.251 68.328 125.037 68.8143C124.842 69.3006 124.57 69.8258 124.22 70.3899C123.889 70.9346 123.49 71.4792 123.024 72.0239C122.576 72.5685 122.1 73.0645 121.594 73.5119C121.108 73.9399 120.612 74.2997 120.106 74.5915C119.62 74.8638 119.162 75 118.734 75C118.326 75 118.054 74.8541 117.918 74.5623C117.801 74.2706 117.742 73.9788 117.742 73.687Z" fill="#516609"/>
<path d="M126.715 69.3325C129.313 74.0496 132.884 78.1606 137.191 81.3931C141.498 84.6255 146.443 86.9056 151.698 88.0821C156.953 89.2586 162.399 89.3047 167.673 88.2173C172.947 87.1299 177.93 84.9339 182.292 81.7748C186.653 78.6157 190.293 74.5657 192.97 69.8932C195.648 65.2207 197.302 60.0325 197.822 54.6725C198.343 49.3125 197.718 43.903 195.989 38.8027C194.261 33.7024 191.468 29.0278 187.796 25.0887L160 51L126.715 69.3325Z" fill="#FCDE00"/>
<path d="M129.665 67.5468C132.018 71.82 135.253 75.5442 139.155 78.4725C143.057 81.4008 147.537 83.4663 152.297 84.5321C157.058 85.5979 161.991 85.6396 166.769 84.6546C171.547 83.6695 176.061 81.6801 180.012 78.8183C183.963 75.9565 187.26 72.2876 189.686 68.0548C192.111 63.822 193.61 59.122 194.081 54.2663C194.553 49.4106 193.987 44.5102 192.421 39.8898C190.855 35.2695 188.325 31.0347 184.998 27.4663L159.818 50.9394L129.665 67.5468Z" fill="#FFFCED"/>
<path d="M167.824 52.2458C166.24 52.1064 165.253 53.9253 166.233 55.1778L179.239 71.7895C180.04 72.8117 181.623 72.69 182.257 71.5575L190.517 56.8169C191.162 55.6658 190.405 54.2326 189.091 54.1169L167.824 52.2458Z" fill="#FCDE00"/>
<path d="M163.425 58.3665C162.448 57.1114 160.444 57.6279 160.195 59.199L156.893 80.0366C156.69 81.3188 157.857 82.3947 159.119 82.0878L175.537 78.094C176.819 77.7821 177.353 76.2513 176.542 75.2102L163.425 58.3665Z" fill="#FCDE00"/>
<path d="M154.065 57.5663C154.449 56.0227 152.806 54.7648 151.416 55.5386L132.983 65.8025C131.849 66.434 131.723 68.0165 132.743 68.8195L146.019 79.2721C147.056 80.0884 148.59 79.5632 148.909 78.2827L154.065 57.5663Z" fill="#FCDE00"/>
<path d="M166.044 45.1602C164.889 46.2533 165.595 48.1986 167.182 48.296L188.24 49.5867C189.536 49.6661 190.495 48.4011 190.069 47.1749L184.521 31.2146C184.088 29.9682 182.513 29.5839 181.554 30.4906L166.044 45.1602Z" fill="#FCDE00"/>
<path d="M9.75629 25.378C9.34419 24.8093 8.93593 23.6008 8.11399 23.4981C7.03135 23.3627 6.21578 25.0115 6.01044 25.8252C5.7302 26.9358 5.79019 27.8463 6.42276 28.7814C7.11679 29.8073 7.24042 31.0069 7.24042 32.2197C7.24042 33.2711 7.49629 35.5259 9.13431 34.6587C11.6229 33.3412 11.7641 30.3059 12.5238 27.9637C13.426 25.1819 15.0427 21.6462 13.7817 18.7389C13.0684 17.0943 11.4958 15.9228 9.67942 15.8246C8.35882 15.7533 7.07894 15.3998 6.36685 16.824C6.02416 17.5094 5.77648 18.2023 5.35352 18.8367" stroke="#667F0E" stroke-width="2" stroke-linecap="round"/>
<path d="M4.0957 35.1898C4.63188 36.4272 4.85047 37.3967 4.85047 38.74C4.85047 39.8868 4.83218 40.8583 5.47943 41.8569C6.54104 43.4948 8.41997 45.979 10.5042 44.1142C11.6376 43.1001 12.5118 41.7564 12.8454 40.2705C13.1281 39.011 13.0051 37.6182 13.3485 36.3919C13.5676 35.6096 14.4895 35.0766 14.907 34.3722C15.2548 33.7852 15.4171 33.1004 15.4171 32.4224" stroke="#667F0E" stroke-width="2" stroke-linecap="round"/>
<path d="M8.24658 11.7922C9.53058 11.6342 11.1323 11.5356 12.272 12.2954" stroke="#667F0E" stroke-width="2" stroke-linecap="round"/>
<defs>
<filter id="filter0_i_850_12719" x="1.51172" y="4.82129" width="17.6313" height="48.2588" filterUnits="userSpaceOnUse" color-interpolation-filters="sRGB">
<feFlood flood-opacity="0" result="BackgroundImageFix"/>
<feBlend mode="normal" in="SourceGraphic" in2="BackgroundImageFix" result="shape"/>
<feColorMatrix in="SourceAlpha" type="matrix" values="0 0 0 0 0 0 0 0 0 0 0 0 0 0 0 0 0 0 127 0" result="hardAlpha"/>
<feOffset dy="2"/>
<feGaussianBlur stdDeviation="1"/>
<feComposite in2="hardAlpha" operator="arithmetic" k2="-1" k3="1"/>
<feColorMatrix type="matrix" values="0 0 0 0 0.2749 0 0 0 0 0.345833 0 0 0 0 0.0317014 0 0 0 1 0"/>
<feBlend mode="normal" in2="shape" result="effect1_innerShadow_850_12719"/>
</filter>
<linearGradient id="paint0_linear_850_12719" x1="101" y1="-6.5" x2="103" y2="35.5" gradientUnits="userSpaceOnUse">
<stop offset="0.154412" stop-color="#91B027"/>
<stop offset="1" stop-color="#506507"/>
</linearGradient>
</defs>
</svg>
